<svg width="122" height="122" viewBox="0 0 122 122" fill="none" xmlns="http://www.w3.org/2000/svg">
<circle cx="61" cy="61" r="61" fill="white"/>
<path d="M29.9132 88.9997H41.3772V60.2276L25 47.4399V83.9046C25 86.7019 27.2157 88.9997 29.9132 88.9997Z" fill="#4285F4"/>
<path d="M80.5872 88.9997H92.0512C94.7487 88.9997 96.9644 86.7019 96.9644 83.9046V47.4399L80.5872 60.1276" fill="#34A853"/>
<path d="M80.5872 38.1498V60.2284L96.9644 47.5407V40.6474C96.9644 34.3535 90.0282 30.7569 85.2113 34.5533" fill="#FBBC04"/>
<path d="M41.3762 60.2275V38.1489L61.0289 53.4341L80.5853 38.1489V60.2275L60.9326 75.4128" fill="#EA4335"/>
<path d="M25 40.6465V47.4399L41.3772 60.1276V38.1489L36.7531 34.5524C31.9362 30.856 25 34.4525 25 40.6465Z" fill="#C5221F"/>
</svg>
